<?xml version="1.0" encoding="utf-8"?>
<!-- Generator: Adobe Illustrator 15.1.0, SVG Export Plug-In . SVG Version: 6.00 Build 0)  -->
<!DOCTYPE svg PUBLIC "-//W3C//DTD SVG 1.1//EN" "http://www.w3.org/Graphics/SVG/1.1/DTD/svg11.dtd">
<svg version="1.1" id="Capa_1" xmlns="http://www.w3.org/2000/svg" xmlns:xlink="http://www.w3.org/1999/xlink" x="0px" y="0px"
	 width="489.6px" height="122.917px" viewBox="61.2 334.542 489.6 122.917" enable-background="new 61.2 334.542 489.6 122.917"
	 xml:space="preserve">
<g>
	<g>
		<path fill="#B3B3B3" d="M284.467,398.207c-0.144-3.856-0.286-8.522-0.286-13.188h-0.143c-1,4.095-2.333,8.665-3.571,12.427
			l-3.904,12.521h-5.666l-3.428-12.426c-1.047-3.762-2.143-8.333-2.904-12.522h-0.095c-0.19,4.332-0.334,9.284-0.571,13.283
			l-0.571,12.188h-6.713l2.047-32.09h9.665l3.143,10.712c1,3.714,2,7.714,2.714,11.475h0.143c0.905-3.714,2-7.951,3.048-11.521
			l3.428-10.665h9.475l1.762,32.09h-7.094L284.467,398.207z"/>
		<path fill="#B3B3B3" d="M302.796,387.209l3.476,11.427c0.381,1.38,0.857,3.095,1.143,4.332h0.144
			c0.333-1.237,0.714-2.999,1.048-4.332l2.856-11.427h7.761l-5.428,15.331c-3.333,9.236-5.57,12.95-8.189,15.283
			c-2.523,2.19-5.189,2.952-6.999,3.19l-1.523-6.143c0.904-0.144,2.048-0.572,3.143-1.238c1.095-0.571,2.285-1.714,2.999-2.904
			c0.238-0.334,0.381-0.714,0.381-1.048c0-0.238-0.047-0.619-0.333-1.189l-8.521-21.282H302.796z"/>
		<path fill="#B3B3B3" d="M322.507,378.829c2.666-0.429,6.142-0.666,9.808-0.666c6.094,0,10.046,1.095,13.141,3.428
			c3.333,2.476,5.428,6.427,5.428,12.093c0,6.143-2.238,10.38-5.333,12.999c-3.38,2.809-8.521,4.142-14.808,4.142
			c-3.761,0-6.427-0.237-8.236-0.476L322.507,378.829L322.507,378.829z M329.791,405.015c0.619,0.143,1.619,0.143,2.523,0.143
			c6.57,0.048,10.855-3.57,10.855-11.236c0.048-6.665-3.856-10.188-10.094-10.188c-1.619,0-2.667,0.143-3.285,0.285V405.015
			L329.791,405.015z"/>
		<path fill="#B3B3B3" d="M368.642,410.491l-0.429-2.334h-0.143c-1.523,1.857-3.904,2.857-6.666,2.857
			c-4.713,0-7.522-3.428-7.522-7.142c0-6.047,5.428-8.951,13.665-8.903v-0.333c0-1.238-0.667-3-4.237-3
			c-2.381,0-4.904,0.809-6.428,1.762l-1.333-4.667c1.618-0.904,4.809-2.047,9.046-2.047c7.761,0,10.236,4.571,10.236,10.046v8.094
			c0,2.238,0.096,4.381,0.333,5.666L368.642,410.491L368.642,410.491z M367.785,399.492c-3.809-0.047-6.761,0.857-6.761,3.667
			c0,1.856,1.237,2.761,2.856,2.761c1.81,0,3.285-1.19,3.762-2.666c0.095-0.381,0.143-0.81,0.143-1.238V399.492L367.785,399.492z"/>
		<path fill="#B3B3B3" d="M380.497,404.158c1.333,0.81,4.095,1.762,6.237,1.762c2.189,0,3.095-0.762,3.095-1.952
			s-0.714-1.762-3.428-2.666c-4.81-1.619-6.666-4.237-6.618-6.999c0-4.333,3.714-7.617,9.475-7.617c2.714,0,5.142,0.618,6.57,1.333
			l-1.285,4.999c-1.048-0.571-3.048-1.333-5.047-1.333c-1.762,0-2.762,0.714-2.762,1.904c0,1.095,0.905,1.667,3.762,2.666
			c4.428,1.524,6.284,3.762,6.333,7.189c0,4.333-3.429,7.523-10.095,7.523c-3.047,0-5.761-0.667-7.522-1.619L380.497,404.158z"/>
		<path fill="#B3B3B3" d="M401.207,376.686h7.237v13.283h0.095c0.762-1,1.715-1.762,2.857-2.38c1.047-0.571,2.428-0.905,3.761-0.905
			c4.618,0,8.142,3.189,8.142,10.188v13.617h-7.236v-12.808c0-3.047-1.048-5.143-3.762-5.143c-1.905,0-3.095,1.238-3.618,2.523
			c-0.19,0.477-0.238,1.095-0.238,1.619v13.807h-7.237V376.686z"/>
		<path fill="#B3B3B3" d="M428.917,410.491c0.095-1.523,0.19-4.333,0.19-6.951v-26.854h7.236v13.284h0.096
			c1.381-2,3.809-3.285,7.046-3.285c5.571,0,9.666,4.618,9.618,11.76c0,8.38-5.333,12.569-10.665,12.569c-2.714,0-5.333-1-7-3.761
			h-0.095l-0.285,3.237H428.917L428.917,410.491z M436.344,400.588c0,0.476,0.048,0.904,0.144,1.285
			c0.476,1.952,2.143,3.428,4.237,3.428c3.095,0,4.999-2.381,4.999-6.57c0-3.618-1.618-6.476-4.999-6.476
			c-1.952,0-3.762,1.477-4.237,3.571c-0.095,0.429-0.144,0.857-0.144,1.333V400.588z"/>
		<path fill="#B3B3B3" d="M480.717,398.588c0,8.522-6.047,12.427-12.283,12.427c-6.81,0-12.046-4.476-12.046-11.998
			s4.951-12.331,12.427-12.331C475.955,386.685,480.717,391.589,480.717,398.588z M463.863,398.826c0,3.999,1.667,6.999,4.761,6.999
			c2.81,0,4.618-2.81,4.618-6.999c0-3.477-1.333-6.999-4.618-6.999C465.148,391.827,463.863,395.398,463.863,398.826z"/>
		<path fill="#B3B3B3" d="M498.428,410.491l-0.429-2.334h-0.143c-1.524,1.857-3.904,2.857-6.666,2.857
			c-4.713,0-7.522-3.428-7.522-7.142c0-6.047,5.428-8.951,13.665-8.903v-0.333c0-1.238-0.667-3-4.237-3
			c-2.381,0-4.904,0.809-6.428,1.762l-1.333-4.667c1.618-0.904,4.809-2.047,9.046-2.047c7.761,0,10.236,4.571,10.236,10.046v8.094
			c0,2.238,0.096,4.381,0.334,5.666L498.428,410.491L498.428,410.491z M497.571,399.492c-3.809-0.047-6.76,0.857-6.76,3.667
			c0,1.856,1.237,2.761,2.856,2.761c1.81,0,3.285-1.19,3.761-2.666c0.096-0.381,0.144-0.81,0.144-1.238L497.571,399.492
			L497.571,399.492z"/>
		<path fill="#B3B3B3" d="M510.331,394.874c0-3.428-0.096-5.666-0.19-7.665h6.236l0.238,4.284h0.19
			c1.19-3.38,4.047-4.809,6.284-4.809c0.667,0,1,0,1.524,0.095v6.809c-0.523-0.095-1.143-0.19-1.952-0.19
			c-2.667,0-4.476,1.429-4.952,3.666c-0.095,0.477-0.143,1.048-0.143,1.619v11.808h-7.237L510.331,394.874L510.331,394.874z"/>
		<path fill="#B3B3B3" d="M550.61,376.686v26.853c0,2.619,0.095,5.38,0.19,6.951h-6.428l-0.334-3.428h-0.095
			c-1.477,2.619-4.285,3.952-7.284,3.952c-5.523,0-9.951-4.714-9.951-11.951c-0.048-7.855,4.856-12.378,10.427-12.378
			c2.856,0,5.095,0.999,6.142,2.618h0.096v-12.617H550.61z M543.372,397.064c0-0.381-0.048-0.905-0.096-1.285
			c-0.428-1.952-1.999-3.571-4.237-3.571c-3.285,0-4.999,2.951-4.999,6.618c0,3.951,1.952,6.428,4.951,6.428
			c2.095,0,3.762-1.429,4.19-3.477c0.143-0.523,0.19-1.047,0.19-1.666V397.064z"/>
	</g>
	<g>
		<path fill="#B3B3B3" d="M303.997,432.428c-0.128-2.152-0.299-4.796-0.299-6.374h-0.042c-0.533,1.557-1.109,3.219-1.94,5.373
			l-3.027,7.803h-0.704l-2.835-7.633c-0.81-2.238-1.429-3.965-1.854-5.543h-0.042c-0.043,1.685-0.149,4.179-0.32,6.566l-0.447,6.609
			h-1.002l1.045-14.369h1.172l3.092,8.293c0.682,1.812,1.172,3.262,1.577,4.647h0.064c0.362-1.321,0.874-2.707,1.599-4.647
			l3.219-8.293h1.216l0.959,14.369h-1.001L303.997,432.428z"/>
		<path fill="#B3B3B3" d="M308.283,428.997l2.686,6.694c0.277,0.725,0.555,1.557,0.746,2.196h0.043
			c0.213-0.619,0.469-1.429,0.789-2.26l2.493-6.63h1.087l-3.069,7.632c-1.236,3.177-2.11,5.074-3.454,6.247
			c-0.811,0.682-1.557,0.98-1.791,1.065l-0.319-0.853c0.511-0.192,1.172-0.555,1.791-1.13c0.511-0.512,1.193-1.364,1.705-2.58
			c0.085-0.213,0.128-0.341,0.128-0.447c0-0.085-0.043-0.234-0.128-0.447l-3.795-9.487L308.283,428.997L308.283,428.997z"/>
		<path fill="#B3B3B3" d="M321.096,424.861h1.023v9.935c0,3.667-1.833,4.669-3.88,4.669c-0.661,0-1.386-0.171-1.748-0.342
			l0.214-0.81c0.362,0.149,0.873,0.277,1.513,0.277c1.834,0,2.879-0.832,2.879-4.029L321.096,424.861L321.096,424.861z"/>
		<path fill="#B3B3B3" d="M329.347,439.465c-2.644,0-4.69-2.068-4.69-5.267c0-3.496,2.303-5.437,4.84-5.437
			c2.836,0,4.754,2.133,4.754,5.267c0,3.795-2.622,5.437-4.882,5.437H329.347z M329.411,438.612c2.131,0,3.815-1.919,3.815-4.542
			c0-1.876-1.045-4.455-3.752-4.455c-2.622,0-3.795,2.323-3.795,4.52c0,2.559,1.62,4.478,3.71,4.478H329.411z"/>
		<path fill="#B3B3B3" d="M336.83,424.072h1.023v6.843h0.042c0.683-1.321,1.94-2.153,3.752-2.153c2.58,0,4.371,2.175,4.371,5.245
			c0,3.646-2.324,5.457-4.563,5.457c-1.663,0-2.857-0.682-3.667-2.067h-0.043l-0.085,1.833h-0.917
			c0.063-0.725,0.085-1.62,0.085-2.388L336.83,424.072L336.83,424.072z M337.854,435.286c0,0.234,0.021,0.49,0.085,0.746
			c0.448,1.557,1.77,2.58,3.369,2.58c2.345,0,3.688-1.919,3.688-4.584c0-2.346-1.279-4.413-3.604-4.413
			c-1.492,0-2.92,1.023-3.411,2.729c-0.063,0.256-0.128,0.533-0.128,0.896V435.286L337.854,435.286z"/>
		<path fill="#B3B3B3" d="M348.492,439.465c-0.49,0-0.853-0.447-0.831-0.96c0-0.554,0.361-0.959,0.874-0.959
			c0.512,0,0.853,0.405,0.853,0.959c0,0.513-0.341,0.96-0.874,0.96H348.492z"/>
		<path fill="#B3B3B3" d="M368.746,432.428c-0.128-2.152-0.299-4.796-0.299-6.374h-0.042c-0.533,1.557-1.108,3.219-1.94,5.373
			l-3.027,7.803h-0.703l-2.836-7.633c-0.811-2.238-1.428-3.965-1.854-5.543h-0.043c-0.042,1.685-0.148,4.179-0.319,6.566
			l-0.447,6.609h-1.002l1.045-14.369h1.172l3.092,8.293c0.682,1.812,1.172,3.262,1.578,4.647h0.063
			c0.362-1.321,0.874-2.707,1.599-4.647l3.22-8.293h1.215l0.959,14.369h-1.002L368.746,432.428z"/>
		<path fill="#B3B3B3" d="M373.031,428.997l2.687,6.694c0.277,0.725,0.554,1.557,0.746,2.196h0.042
			c0.214-0.619,0.469-1.429,0.789-2.26l2.494-6.63h1.087l-3.07,7.632c-1.236,3.177-2.11,5.074-3.453,6.247
			c-0.811,0.682-1.557,0.98-1.791,1.065l-0.319-0.853c0.512-0.192,1.172-0.555,1.79-1.13c0.513-0.512,1.194-1.364,1.706-2.58
			c0.085-0.213,0.128-0.341,0.128-0.447c0-0.085-0.043-0.234-0.128-0.447l-3.795-9.487L373.031,428.997L373.031,428.997z"/>
		<path fill="#B3B3B3" d="M392.56,438.719c-0.725,0.362-2.11,0.725-3.88,0.725c-3.476,0-6.801-2.217-6.801-7.313
			c0-4.264,2.75-7.482,7.291-7.482c1.834,0,2.899,0.404,3.326,0.618l-0.319,0.853c-0.726-0.362-1.771-0.618-2.985-0.618
			c-3.88,0-6.246,2.516-6.246,6.651c0,3.902,2.217,6.417,6.076,6.417c1.214,0,2.409-0.256,3.239-0.66L392.56,438.719z"/>
		<path fill="#B3B3B3" d="M401.259,436.8c0,0.811,0.021,1.642,0.148,2.431h-0.938l-0.149-1.472h-0.042
			c-0.512,0.789-1.642,1.706-3.284,1.706c-2.067,0-3.006-1.45-3.006-2.814c0-2.366,2.068-3.795,6.247-3.752v-0.277
			c0-1.002-0.192-3.026-2.622-3.006c-0.896,0-1.834,0.234-2.58,0.768l-0.319-0.746c0.938-0.618,2.089-0.874,3.006-0.874
			c2.963,0,3.539,2.218,3.539,4.029V436.8z M400.236,433.752c-2.238-0.064-5.181,0.276-5.181,2.729c0,1.471,0.98,2.132,2.047,2.132
			c1.705,0,2.686-1.045,3.026-2.047c0.086-0.213,0.106-0.447,0.106-0.618L400.236,433.752L400.236,433.752z"/>
		<path fill="#B3B3B3" d="M404.542,432.067c0-1.023-0.021-2.068-0.085-3.07h0.938l0.043,2.067h0.063
			c0.448-1.3,1.514-2.303,2.899-2.303c0.149,0,0.299,0.021,0.427,0.043v0.959c-0.149-0.021-0.299-0.021-0.49-0.021
			c-1.407,0-2.409,1.215-2.687,2.856c-0.064,0.299-0.085,0.64-0.085,0.98v5.649h-1.024L404.542,432.067L404.542,432.067z"/>
		<path fill="#B3B3B3" d="M410.768,434.007c0,3.262,1.791,4.563,3.901,4.563c1.492,0,2.26-0.298,2.836-0.575l0.256,0.789
			c-0.384,0.213-1.429,0.66-3.22,0.66c-2.941,0-4.775-2.132-4.775-5.138c0-3.411,1.962-5.543,4.604-5.543
			c3.348,0,3.987,3.155,3.987,4.627c0,0.276,0,0.426-0.043,0.618L410.768,434.007L410.768,434.007z M417.291,433.197
			c0.021-1.429-0.575-3.582-3.049-3.582c-2.26,0-3.219,2.004-3.411,3.582H417.291z"/>
		<path fill="#B3B3B3" d="M421.108,434.007c0,3.262,1.791,4.563,3.901,4.563c1.492,0,2.261-0.298,2.836-0.575l0.256,0.789
			c-0.384,0.213-1.429,0.66-3.22,0.66c-2.941,0-4.775-2.132-4.775-5.138c0-3.411,1.962-5.543,4.604-5.543
			c3.348,0,3.987,3.155,3.987,4.627c0,0.276,0,0.426-0.043,0.618L421.108,434.007L421.108,434.007z M427.631,433.197
			c0.021-1.429-0.575-3.582-3.049-3.582c-2.26,0-3.219,2.004-3.411,3.582H427.631z"/>
		<path fill="#B3B3B3" d="M431.278,432.067c0-1.023-0.021-2.068-0.086-3.07h0.938l0.042,2.067h0.064
			c0.447-1.3,1.514-2.303,2.899-2.303c0.149,0,0.299,0.021,0.427,0.043v0.959c-0.149-0.021-0.299-0.021-0.491-0.021
			c-1.406,0-2.409,1.215-2.686,2.856c-0.064,0.299-0.086,0.64-0.086,0.98v5.649h-1.023L431.278,432.067L431.278,432.067z"/>
		<path fill="#B3B3B3" d="M436.885,439.465c-0.49,0-0.853-0.447-0.831-0.96c0-0.554,0.361-0.959,0.874-0.959
			c0.512,0,0.852,0.405,0.852,0.959c0,0.513-0.34,0.96-0.873,0.96H436.885z"/>
		<path fill="#B3B3B3" d="M457.138,432.428c-0.128-2.152-0.298-4.796-0.298-6.374h-0.043c-0.533,1.557-1.108,3.219-1.939,5.373
			l-3.027,7.803h-0.704l-2.835-7.633c-0.811-2.238-1.429-3.965-1.855-5.543h-0.042c-0.043,1.685-0.149,4.179-0.32,6.566
			l-0.447,6.609h-1.002l1.045-14.369h1.172l3.092,8.293c0.682,1.812,1.173,3.262,1.578,4.647h0.064
			c0.362-1.321,0.873-2.707,1.598-4.647l3.22-8.293h1.215l0.959,14.369h-1.001L457.138,432.428z"/>
		<path fill="#B3B3B3" d="M461.423,428.997l2.687,6.694c0.277,0.725,0.555,1.557,0.746,2.196h0.042
			c0.214-0.619,0.47-1.429,0.789-2.26l2.494-6.63h1.087l-3.07,7.632c-1.236,3.177-2.11,5.074-3.453,6.247
			c-0.811,0.682-1.557,0.98-1.791,1.065l-0.32-0.853c0.512-0.192,1.173-0.555,1.791-1.13c0.512-0.512,1.194-1.364,1.706-2.58
			c0.085-0.213,0.127-0.341,0.127-0.447c0-0.085-0.042-0.234-0.127-0.447l-3.795-9.487L461.423,428.997L461.423,428.997z"/>
		<path fill="#B3B3B3" d="M471.209,425.032c0.831-0.149,1.876-0.277,3.092-0.277c1.705,0,3.006,0.447,3.795,1.215
			c0.703,0.66,1.108,1.62,1.108,2.813c0,1.236-0.342,2.153-1.002,2.878c-0.917,1.045-2.452,1.6-4.222,1.6
			c-0.661,0-1.236-0.021-1.748-0.171v6.14h-1.023V425.032L471.209,425.032z M472.233,432.195c0.49,0.17,1.131,0.213,1.834,0.213
			c2.579,0,4.114-1.236,4.114-3.518c0-2.26-1.642-3.283-3.923-3.283c-0.938,0-1.641,0.085-2.025,0.171V432.195L472.233,432.195z"/>
		<path fill="#B3B3B3" d="M481.742,424.072h1.023v15.158h-1.023V424.072z"/>
		<path fill="#B3B3B3" d="M492.636,436.8c0,0.811,0.021,1.642,0.149,2.431h-0.938l-0.149-1.472h-0.042
			c-0.512,0.789-1.642,1.706-3.283,1.706c-2.067,0-3.006-1.45-3.006-2.814c0-2.366,2.067-3.795,6.246-3.752v-0.277
			c0-1.002-0.191-3.026-2.622-3.006c-0.896,0-1.833,0.234-2.579,0.768l-0.32-0.746c0.938-0.618,2.09-0.874,3.007-0.874
			c2.963,0,3.538,2.218,3.538,4.029V436.8z M491.613,433.752c-2.238-0.064-5.181,0.276-5.181,2.729c0,1.471,0.98,2.132,2.047,2.132
			c1.705,0,2.686-1.045,3.026-2.047c0.086-0.213,0.106-0.447,0.106-0.618L491.613,433.752L491.613,433.752z"/>
		<path fill="#B3B3B3" d="M502.997,438.783c-0.447,0.213-1.514,0.66-3.006,0.66c-2.942,0-4.903-2.153-4.903-5.224
			c0-3.262,2.218-5.457,5.267-5.457c1.257,0,2.302,0.362,2.686,0.64l-0.362,0.831c-0.49-0.298-1.279-0.597-2.409-0.597
			c-2.75,0-4.157,2.09-4.157,4.498c0,2.687,1.685,4.435,4.051,4.435c1.215,0,2.004-0.341,2.559-0.597L502.997,438.783z"/>
		<path fill="#B3B3B3" d="M505.599,434.007c0,3.262,1.791,4.563,3.901,4.563c1.492,0,2.26-0.298,2.836-0.575l0.256,0.789
			c-0.384,0.213-1.429,0.66-3.22,0.66c-2.941,0-4.775-2.132-4.775-5.138c0-3.411,1.962-5.543,4.604-5.543
			c3.348,0,3.987,3.155,3.987,4.627c0,0.276,0,0.426-0.043,0.618L505.599,434.007L505.599,434.007z M512.122,433.197
			c0.021-1.429-0.575-3.582-3.049-3.582c-2.26,0-3.219,2.004-3.411,3.582H512.122z"/>
		<path fill="#B3B3B3" d="M515.832,439.465c-0.491,0-0.854-0.447-0.832-0.96c0-0.554,0.362-0.959,0.874-0.959
			s0.853,0.405,0.853,0.959c0,0.513-0.341,0.96-0.874,0.96H515.832z"/>
	</g>
	<g>
		<rect x="140.277" y="380.634" fill="#E91E63" width="37.771" height="37.772"/>
		<rect x="112.347" y="354.357" fill="#673AB7" width="46.838" height="46.838"/>
		<rect x="147.894" y="408.185" fill="#FFC107" width="49.273" height="49.273"/>
		<rect x="67.044" y="348.92" fill="#3F51B5" width="40.718" height="40.718"/>
		<rect x="183.581" y="389.594" fill="#FF9800" width="47.057" height="47.057"/>
		<rect x="97.174" y="381.695" fill="#2196F3" width="33.593" height="33.593"/>
		<rect x="102.662" y="334.542" fill="#9C27B0" width="27.681" height="27.682"/>
		<rect x="119.354" y="406.553" fill="#8BC34A" width="41.846" height="41.846"/>
		<rect x="162.705" y="356.184" fill="#F44336" width="43.182" height="43.183"/>
		<rect x="61.2" y="395.759" fill="#03A9F4" width="46.047" height="46.048"/>
		<rect x="99.588" y="425.721" fill="#009688" width="29.588" height="29.588"/>
	</g>
</g>
</svg>
